<?xml version="1.0" encoding="UTF-8"?>
<svg width="95px" height="95px" viewBox="0 0 95 95" version="1.1" xmlns="http://www.w3.org/2000/svg" xmlns:xlink="http://www.w3.org/1999/xlink">
    <!-- Generator: Sketch 52.5 (67469) - http://www.bohemiancoding.com/sketch -->
    <title>Group 7</title>
    <desc>Created with Sketch.</desc>
    <g id="Practical-Info" stroke="none" stroke-width="1" fill="none" fill-rule="evenodd">
        <g id="Tablet-Portrait" transform="translate(-184.000000, -602.000000)">
            <g id="Group-7" transform="translate(184.000000, 602.000000)">
                <circle id="Oval-Copy" fill="#98C840" cx="47.5" cy="47.5" r="47.5"></circle>
                <g id="Group-2" transform="translate(17.416667, 16.625000)">
                    <path d="M30.0833333,34.8333333 C20.4643739,34.8333333 12.6666667,27.0356261 12.6666667,17.4166667 C12.6666667,7.79770727 20.4643739,0 30.0833333,0 C39.7022927,0 47.5,7.79770727 47.5,17.4166667 C47.5,27.0356261 39.7022927,34.8333333 30.0833333,34.8333333 Z M1.30435317,78.375 C0.456086562,75.5563474 0,72.5661569 0,69.46875 C0,52.5262647 13.6459877,38.7916667 30.4791667,38.7916667 C47.3123456,38.7916667 60.9583333,52.5262647 60.9583333,69.46875 C60.9583333,72.5661569 60.5022468,75.5563474 59.6539802,78.375 L1.30435317,78.375 Z" id="Combined-Shape" fill="#FFFFFF"></path>
                    <path d="M28.8066667,65.985 C28.8066667,61.695 30.2466667,60.045 31.5366667,58.785 C32.4066667,57.915 33.0366667,57.165 33.0366667,55.905 C33.0366667,54.315 31.9866667,53.265 30.4566667,53.265 C28.9566667,53.265 27.8766667,54.315 27.7566667,55.905 L24.0366667,55.725 C24.2166667,52.215 26.7666667,49.875 30.4566667,49.875 C34.5066667,49.875 37.1766667,52.215 37.1766667,55.725 C37.1766667,58.125 36.0066667,59.295 34.7466667,60.465 C33.4566667,61.695 32.1666667,62.985 32.1666667,65.985 L28.8066667,65.985 Z M30.4866667,72.675 C29.1366667,72.675 28.1466667,71.655 28.1466667,70.305 C28.1466667,68.925 29.1366667,67.965 30.4866667,67.965 C31.8366667,67.965 32.7966667,68.925 32.7966667,70.305 C32.7966667,71.655 31.8366667,72.675 30.4866667,72.675 Z" id="?" fill="#98C840"></path>
                </g>
            </g>
        </g>
    </g>
</svg>