<?xml version="1.0" encoding="UTF-8"?>
<svg width="95px" height="95px" viewBox="0 0 95 95" version="1.1" xmlns="http://www.w3.org/2000/svg" xmlns:xlink="http://www.w3.org/1999/xlink">
    <!-- Generator: Sketch 52.5 (67469) - http://www.bohemiancoding.com/sketch -->
    <title>Group 7</title>
    <desc>Created with Sketch.</desc>
    <g id="Practical-Info" stroke="none" stroke-width="1" fill="none" fill-rule="evenodd">
        <g id="Tablet-Portrait" transform="translate(-184.000000, -602.000000)">
            <g id="Group-7" transform="translate(184.000000, 602.000000)">
                <circle id="Oval-Copy" fill="#98C840" cx="47.5" cy="47.5" r="47.5"></circle>
                <g id="Group-2" transform="translate(17.416667, 16.625000)">
                    <path d="M30.0833333,34.8333333 C20.4643739,34.8333333 12.6666667,27.0356261 12.6666667,17.4166667 C12.6666667,7.79770727 20.4643739,0 30.0833333,0 C39.7022927,0 47.5,7.79770727 47.5,17.4166667 C47.5,27.0356261 39.7022927,34.8333333 30.0833333,34.8333333 Z M1.30435317,78.375 C0.456086562,75.5563474 0,72.5661569 0,69.46875 C0,52.5262647 13.6459877,38.7916667 30.4791667,38.7916667 C47.3123456,38.7916667 60.9583333,52.5262647 60.9583333,69.46875 C60.9583333,72.5661569 60.5022468,75.5563474 59.6539802,78.375 L1.30435317,78.375 Z" id="Combined-Shape" fill="#FFFFFF"></path>
                    <text id="?" font-family="BwModelicaDEMO-BlackCondensed, Bw Modelica DEMO" font-size="40" font-style="condensed" font-weight="700" letter-spacing="0.36" fill="#98C840">
                        <tspan x="22.1666667" y="74.375">?</tspan>
                    </text>
                </g>
            </g>
        </g>
    </g>
</svg>