<?xml version="1.0" encoding="UTF-8"?>
<svg width="52px" height="52px" viewBox="0 0 52 52" version="1.1" xmlns="http://www.w3.org/2000/svg" xmlns:xlink="http://www.w3.org/1999/xlink">
    <!-- Generator: Sketch 52.5 (67469) - http://www.bohemiancoding.com/sketch -->
    <title>Group 2</title>
    <desc>Created with Sketch.</desc>
    <defs>
        <linearGradient x1="100%" y1="50%" x2="-2.22044605e-14%" y2="50%" id="linearGradient-1">
            <stop stop-color="#9C4A9A" offset="0%"></stop>
            <stop stop-color="#0093D4" offset="32.4288259%"></stop>
            <stop stop-color="#159663" offset="49.6472421%"></stop>
            <stop stop-color="#F6E826" offset="66.3810551%"></stop>
            <stop stop-color="#F64A42" offset="100%"></stop>
        </linearGradient>
    </defs>
    <g id="Home" stroke="none" stroke-width="1" fill="none" fill-rule="evenodd">
        <g id="Tablet-Portrait-Copy" transform="translate(-50.000000, -51.000000)">
            <g id="Group-2" transform="translate(50.000000, 52.000000)">
                <path d="M1,9.58890353 L8.17386708,17 C12.8692641,12.5082186 18.134734,10.2623279 23.9702768,10.2623279 C29.8058196,10.2623279 35.0945097,12.5082186 39.8363469,17 L47,9.76756318 C40.322027,3.25585439 32.6904157,0 24.105166,0 C15.5199164,3.87814105e-16 7.81819435,3.19630118 1,9.58890353 Z" id="Path" stroke="#FFFFFF" fill="url(#linearGradient-1)"></path>
                <path d="M8.145,27.885 L10.2,27.885 L10.2,39.3 L8.07,39.3 L8.07,34.785 C7.425,35.64 6.42,36.15 4.995,36.15 C2.535,36.15 0.675,34.455 0.675,31.905 C0.675,29.415 2.535,27.735 4.995,27.735 C6.435,27.735 7.47,28.26 8.1,29.145 L8.145,27.885 Z M5.475,34.32 C7.035,34.32 8.07,33.375 8.07,31.95 C8.07,30.525 7.035,29.58 5.475,29.58 C3.915,29.58 2.88,30.525 2.88,31.935 C2.88,33.375 3.915,34.32 5.475,34.32 Z M18.855,27.885 L21,27.885 L21,36 L18.93,36 L18.9,34.905 C18.255,35.73 17.25,36.15 16.065,36.15 C13.995,36.15 12.615,34.71 12.615,32.535 L12.615,27.885 L14.76,27.885 L14.76,32.205 C14.76,33.465 15.57,34.32 16.8,34.32 C18.03,34.32 18.855,33.465 18.855,32.205 L18.855,27.885 Z M31.95,31.83 C31.95,32.1 31.92,32.43 31.905,32.685 L25.275,32.685 C25.47,33.78 26.19,34.47 27.54,34.47 C28.5,34.47 29.295,34.125 29.85,33.555 L31.5,34.38 C30.675,35.46 29.265,36.15 27.57,36.15 C24.825,36.15 22.995,34.5 22.995,32.01 C22.995,29.46 24.78,27.735 27.465,27.735 C30.165,27.735 31.95,29.385 31.95,31.83 Z M27.465,29.415 C26.235,29.415 25.485,30.105 25.275,31.29 L29.7,31.29 C29.505,30.09 28.74,29.415 27.465,29.415 Z M42.33,31.83 C42.33,32.1 42.3,32.43 42.285,32.685 L35.655,32.685 C35.85,33.78 36.57,34.47 37.92,34.47 C38.88,34.47 39.675,34.125 40.23,33.555 L41.88,34.38 C41.055,35.46 39.645,36.15 37.95,36.15 C35.205,36.15 33.375,34.5 33.375,32.01 C33.375,29.46 35.16,27.735 37.845,27.735 C40.545,27.735 42.33,29.385 42.33,31.83 Z M37.845,29.415 C36.615,29.415 35.865,30.105 35.655,31.29 L40.08,31.29 C39.885,30.09 39.12,29.415 37.845,29.415 Z M46.38,29.025 C47.07,28.2 48.24,27.735 49.725,27.735 L49.575,29.715 C47.655,29.715 46.41,30.51 46.41,31.695 L46.41,36 L44.28,36 L44.28,27.885 L46.335,27.885 L46.38,29.025 Z M5.445,39.98 C4.605,39.98 4.035,40.49 4.035,41.255 L4.035,41.885 L6.525,41.885 L6.525,43.64 L4.035,43.64 L4.035,50 L1.905,50 L1.905,43.64 L0.42,43.64 L0.42,41.885 L1.905,41.885 L1.905,40.925 C1.905,39.26 3.045,38.15 4.77,38.15 C5.505,38.15 6.225,38.255 6.75,38.48 L6.6,40.145 C6.255,40.025 5.88,39.98 5.445,39.98 Z M14.22,41.885 L16.365,41.885 L16.365,50 L14.295,50 L14.265,48.905 C13.62,49.73 12.615,50.15 11.43,50.15 C9.36,50.15 7.98,48.71 7.98,46.535 L7.98,41.885 L10.125,41.885 L10.125,46.205 C10.125,47.465 10.935,48.32 12.165,48.32 C13.395,48.32 14.22,47.465 14.22,46.205 L14.22,41.885 Z M22.905,48.32 C23.445,48.32 23.97,48.245 24.51,48.05 L24.51,49.775 C23.835,50.03 23.04,50.15 22.23,50.15 C20.595,50.15 19.485,49.085 19.485,47.465 L19.485,43.64 L17.985,43.64 L17.985,41.885 L19.485,41.885 L19.485,39.515 L21.63,39.515 L21.63,41.885 L24.375,41.885 L24.375,43.64 L21.63,43.64 L21.63,47.03 C21.63,47.81 22.14,48.32 22.905,48.32 Z M32.31,41.885 L34.455,41.885 L34.455,50 L32.385,50 L32.355,48.905 C31.71,49.73 30.705,50.15 29.52,50.15 C27.45,50.15 26.07,48.71 26.07,46.535 L26.07,41.885 L28.215,41.885 L28.215,46.205 C28.215,47.465 29.025,48.32 30.255,48.32 C31.485,48.32 32.31,47.465 32.31,46.205 L32.31,41.885 Z M39.075,43.025 C39.765,42.2 40.935,41.735 42.42,41.735 L42.27,43.715 C40.35,43.715 39.105,44.51 39.105,45.695 L39.105,50 L36.975,50 L36.975,41.885 L39.03,41.885 L39.075,43.025 Z M51.93,45.83 C51.93,46.1 51.9,46.43 51.885,46.685 L45.255,46.685 C45.45,47.78 46.17,48.47 47.52,48.47 C48.48,48.47 49.275,48.125 49.83,47.555 L51.48,48.38 C50.655,49.46 49.245,50.15 47.55,50.15 C44.805,50.15 42.975,48.5 42.975,46.01 C42.975,43.46 44.76,41.735 47.445,41.735 C50.145,41.735 51.93,43.385 51.93,45.83 Z M47.445,43.415 C46.215,43.415 45.465,44.105 45.255,45.29 L49.68,45.29 C49.485,44.09 48.72,43.415 47.445,43.415 Z" id="queer-future" fill="#FFFFFF"></path>
            </g>
        </g>
    </g>
</svg>